<?xml version="1.0" encoding="utf-8"?>
<!-- Generator: Adobe Illustrator 18.0.0, SVG Export Plug-In . SVG Version: 6.00 Build 0)  -->
<!DOCTYPE svg PUBLIC "-//W3C//DTD SVG 1.1//EN" "http://www.w3.org/Graphics/SVG/1.1/DTD/svg11.dtd">
<svg version="1.1" id="_xB9_Ã_xBC_h_1" xmlns="http://www.w3.org/2000/svg" xmlns:xlink="http://www.w3.org/1999/xlink" x="0px"
	 y="0px" viewBox="182.6 150.6 594 294" enable-background="new 182.6 150.6 594 294" xml:space="preserve">
<path fill="#00BFFF" d="M252.3,349.6L239.1,334l53.1-43c-7.1-9.7-17.4-14.5-30.8-14.5c-10.9,0-20.8,4.8-29.8,14.5
	c-9.2,9.9-13.8,20.3-13.8,31.2c0,10.6,4.6,20.4,13.8,29.4c9,9.1,18.9,13.6,29.8,13.6c7.1,0,14-1.9,20.6-5.9
	c6.4-3.7,12.2-9.1,17.4-16.2l18.2,11.2c-5.2,9.6-12.5,17.1-22.1,22.3c-9.7,5.4-20.5,8.1-32.5,8.1c-18.7,0-34.4-5.5-47.1-16.4
	c-13.4-11.7-20.1-27.4-20.1-47.2c0-17.1,6.3-32.6,19-46.6c12.5-13.7,27.8-20.6,46-20.6c13.6,0,25.8,3.6,36.6,10.7
	c10.8,7.2,18.7,16.9,23.7,29.3L252.3,349.6z"/>
<path fill="#00BFFF" d="M374.6,364h67.1v20.8h-87.5c-8.6,0-12.9-2.9-12.9-8.6c0-3.9,2.4-8.9,7.1-15l65.4-82.2h-67v-20.8h87.7
	c4.2,0,7.5,1,10,3.1c2.2,2,3.3,4.7,3.3,8c0,2-0.5,4.1-1.4,6.1s-2.3,4.1-4.1,6.1L374.6,364z"/>
<path fill="#F222CE" d="M476.9,275.9c0,51,24,95.4,56.7,117.9l-5.3,43.4l39.2-28.9c2,0.4,4,0.7,6,0.9
	c134.6,13.9,194.9-75.2,194.9-145.6c0-70.3-59.7-107-159.8-100C538.9,168.5,476.9,205.5,476.9,275.9z"/>
<g>
	<path fill="#FFFFFF" d="M563.1,320.9c-1.2,0.1-2.3,0.6-3.3,1.3c-0.8,1-1.1,2.1-1,3.2v16.7c0,1.6,0.4,2.7,1.1,3.5
		c0.8,0.9,1.8,1.4,3.1,1.5h24.4c1.4,0,2.6-0.5,3.6-1.5c0.8-1,1.2-2.2,1.3-3.5v-16.7c0-1.5-0.5-2.6-1.5-3.4c-0.9-0.8-2-1.2-3.4-1.2
		h-24.3V320.9z M551.6,365.4c-3.2-0.2-6-1.5-8.5-4c-2.6-2.9-3.8-5.8-3.7-8.9V315c0-3.3,1.2-6.3,3.7-8.9c2.3-2.2,5.1-3.3,8.5-3.3H599
		c3.6-0.2,6.7,1,9.1,3.6c2.3,2.7,3.5,5.5,3.7,8.6v37.5c0,3.4-1.3,6.4-4,9.1c-2.4,2.5-5.4,3.8-8.8,3.8L551.6,365.4L551.6,365.4z
		 M599.1,279.5c2.7,0.1,5,0.9,6.6,2.3c1.7,1.8,2.5,4,2.5,6.7c0,2.5-0.8,4.7-2.5,6.4c-1.7,1.9-3.9,2.8-6.6,2.8h-48.3
		c-2.9,0-5.1-0.8-6.8-2.5s-2.5-4-2.5-6.7c0-2.5,0.8-4.6,2.5-6.4c1.8-1.7,4-2.6,6.8-2.6L599.1,279.5L599.1,279.5z M599.1,257.3
		c2.7,0.1,5,0.9,6.6,2.3c1.7,1.8,2.5,4,2.5,6.7c0,2.5-0.8,4.7-2.5,6.4c-1.7,1.9-3.9,2.8-6.6,2.8h-48.3c-2.9,0-5.1-0.8-6.8-2.5
		c-1.7-1.7-2.5-4-2.5-6.7c0-2.5,0.8-4.6,2.5-6.4c1.8-1.7,4-2.6,6.8-2.6H599.1z M607.7,235c2.8,0.1,4.9,0.9,6.6,2.3
		c1.7,1.8,2.5,4,2.5,6.7c0,2.5-0.8,4.7-2.5,6.4c-1.7,1.9-3.9,2.8-6.6,2.8h-63.5c-2.9,0-5.1-0.8-6.8-2.5s-2.5-4-2.5-6.7
		c0-2.5,0.8-4.6,2.5-6.4c1.8-1.7,4-2.6,6.8-2.6H607.7z M598.5,211.8c2.8,0.1,5,0.9,6.6,2.3c1.6,1.8,2.5,4,2.5,6.7
		c0,2.5-0.8,4.7-2.5,6.4c-1.7,1.9-3.9,2.8-6.6,2.8h-47.6c-2.9,0-5.1-0.8-6.8-2.5s-2.5-4-2.5-6.7c0-2.5,0.8-4.6,2.5-6.4
		c1.8-1.7,4-2.6,6.8-2.6H598.5z M620.7,232c-3.1-0.1-5.5-1-7.3-2.7s-2.6-4-2.6-6.9c0-2.6,0.9-4.8,2.6-6.8c1.8-1.8,4.2-2.7,7.3-2.7
		h67.2c3,0,5.4,0.9,7.1,2.6c1.8,1.7,2.6,4,2.6,6.9c0,2.6-0.9,4.9-2.6,6.8c-1.8,1.9-4.1,2.9-7.1,2.9H674v115.8
		c0,6.1-2.1,10.8-6.4,14.1c-5,3.7-13.8,5.4-26.4,5.1c-4.3-0.6-9.9-1.5-16.9-3c-3.2-1-5.5-2.7-7-5.1c-1-2.3-1.2-4.8-0.5-7.4
		c2.2-5.9,6.6-8,13.2-6.4c12.6,2.7,20.2,2.9,22.8,0.5c1.1-1.1,1.7-2.7,1.7-4.8V232H620.7z"/>
</g>
<ellipse fill="#FFFFFF" cx="690.2" cy="363.5" rx="10.5" ry="10.5"/>
</svg>
